<mxfile host="app.diagrams.net" modified="2022-10-06T13:58:16.193Z" agent="5.0 (Windows NT 10.0; Win64; x64) AppleWebKit/537.36 (KHTML, like Gecko) Chrome/105.0.0.0 Safari/537.36" etag="YRqN2ACJdeeIXnbXqfKi" version="20.4.0" type="github">
  <diagram id="isSHysZSOV_eZTjE9S0N" name="Page-1">
    <mxGraphModel dx="1278" dy="634" grid="1" gridSize="10" guides="1" tooltips="1" connect="1" arrows="1" fold="1" page="1" pageScale="1" pageWidth="1169" pageHeight="1654" math="0" shadow="0">
      <root>
        <mxCell id="0" />
        <mxCell id="1" parent="0" />
        <mxCell id="lWKQJTrCnq6i_7RbVUrm-1" value="" style="rounded=0;whiteSpace=wrap;html=1;" vertex="1" parent="1">
          <mxGeometry x="524" y="120" width="120" height="60" as="geometry" />
        </mxCell>
        <mxCell id="lWKQJTrCnq6i_7RbVUrm-2" value="" style="rounded=0;whiteSpace=wrap;html=1;" vertex="1" parent="1">
          <mxGeometry x="220" y="260" width="120" height="60" as="geometry" />
        </mxCell>
        <mxCell id="lWKQJTrCnq6i_7RbVUrm-3" value="" style="rounded=0;whiteSpace=wrap;html=1;" vertex="1" parent="1">
          <mxGeometry x="525" y="260" width="120" height="60" as="geometry" />
        </mxCell>
        <mxCell id="lWKQJTrCnq6i_7RbVUrm-4" value="" style="rounded=0;whiteSpace=wrap;html=1;" vertex="1" parent="1">
          <mxGeometry x="810" y="260" width="120" height="60" as="geometry" />
        </mxCell>
        <mxCell id="lWKQJTrCnq6i_7RbVUrm-5" value="" style="rounded=0;whiteSpace=wrap;html=1;" vertex="1" parent="1">
          <mxGeometry x="250" y="370" width="120" height="60" as="geometry" />
        </mxCell>
        <mxCell id="lWKQJTrCnq6i_7RbVUrm-6" value="" style="rounded=0;whiteSpace=wrap;html=1;" vertex="1" parent="1">
          <mxGeometry x="280" y="476" width="120" height="30" as="geometry" />
        </mxCell>
        <mxCell id="lWKQJTrCnq6i_7RbVUrm-7" value="" style="rounded=0;whiteSpace=wrap;html=1;" vertex="1" parent="1">
          <mxGeometry x="280" y="536" width="120" height="30" as="geometry" />
        </mxCell>
        <mxCell id="lWKQJTrCnq6i_7RbVUrm-8" value="" style="rounded=0;whiteSpace=wrap;html=1;" vertex="1" parent="1">
          <mxGeometry x="250" y="610" width="120" height="60" as="geometry" />
        </mxCell>
        <mxCell id="lWKQJTrCnq6i_7RbVUrm-9" value="" style="rounded=0;whiteSpace=wrap;html=1;" vertex="1" parent="1">
          <mxGeometry x="280" y="720" width="120" height="30" as="geometry" />
        </mxCell>
        <mxCell id="lWKQJTrCnq6i_7RbVUrm-10" value="" style="rounded=0;whiteSpace=wrap;html=1;" vertex="1" parent="1">
          <mxGeometry x="280" y="780" width="120" height="30" as="geometry" />
        </mxCell>
        <mxCell id="lWKQJTrCnq6i_7RbVUrm-11" value="" style="rounded=0;whiteSpace=wrap;html=1;" vertex="1" parent="1">
          <mxGeometry x="555" y="370" width="120" height="60" as="geometry" />
        </mxCell>
        <mxCell id="lWKQJTrCnq6i_7RbVUrm-12" value="" style="rounded=0;whiteSpace=wrap;html=1;" vertex="1" parent="1">
          <mxGeometry x="585" y="476" width="120" height="30" as="geometry" />
        </mxCell>
        <mxCell id="lWKQJTrCnq6i_7RbVUrm-13" value="" style="rounded=0;whiteSpace=wrap;html=1;" vertex="1" parent="1">
          <mxGeometry x="585" y="536" width="120" height="30" as="geometry" />
        </mxCell>
        <mxCell id="lWKQJTrCnq6i_7RbVUrm-14" value="" style="rounded=0;whiteSpace=wrap;html=1;" vertex="1" parent="1">
          <mxGeometry x="555" y="610" width="120" height="60" as="geometry" />
        </mxCell>
        <mxCell id="lWKQJTrCnq6i_7RbVUrm-15" value="" style="rounded=0;whiteSpace=wrap;html=1;" vertex="1" parent="1">
          <mxGeometry x="585" y="720" width="120" height="30" as="geometry" />
        </mxCell>
        <mxCell id="lWKQJTrCnq6i_7RbVUrm-16" value="" style="rounded=0;whiteSpace=wrap;html=1;" vertex="1" parent="1">
          <mxGeometry x="585" y="780" width="120" height="30" as="geometry" />
        </mxCell>
        <mxCell id="lWKQJTrCnq6i_7RbVUrm-17" value="" style="rounded=0;whiteSpace=wrap;html=1;" vertex="1" parent="1">
          <mxGeometry x="585" y="840" width="120" height="30" as="geometry" />
        </mxCell>
        <mxCell id="lWKQJTrCnq6i_7RbVUrm-18" value="" style="rounded=0;whiteSpace=wrap;html=1;" vertex="1" parent="1">
          <mxGeometry x="585" y="900" width="120" height="30" as="geometry" />
        </mxCell>
        <mxCell id="lWKQJTrCnq6i_7RbVUrm-19" value="" style="rounded=0;whiteSpace=wrap;html=1;" vertex="1" parent="1">
          <mxGeometry x="850" y="370" width="120" height="60" as="geometry" />
        </mxCell>
        <mxCell id="lWKQJTrCnq6i_7RbVUrm-20" value="" style="endArrow=none;html=1;rounded=0;entryX=0.5;entryY=1;entryDx=0;entryDy=0;" edge="1" parent="1" target="lWKQJTrCnq6i_7RbVUrm-1">
          <mxGeometry width="50" height="50" relative="1" as="geometry">
            <mxPoint x="584" y="260" as="sourcePoint" />
            <mxPoint x="640" y="400" as="targetPoint" />
          </mxGeometry>
        </mxCell>
        <mxCell id="lWKQJTrCnq6i_7RbVUrm-21" value="" style="endArrow=none;html=1;rounded=0;entryX=0.5;entryY=0;entryDx=0;entryDy=0;" edge="1" parent="1" target="lWKQJTrCnq6i_7RbVUrm-2">
          <mxGeometry width="50" height="50" relative="1" as="geometry">
            <mxPoint x="280" y="220" as="sourcePoint" />
            <mxPoint x="640" y="400" as="targetPoint" />
          </mxGeometry>
        </mxCell>
        <mxCell id="lWKQJTrCnq6i_7RbVUrm-22" value="" style="endArrow=none;html=1;rounded=0;entryX=0.5;entryY=0;entryDx=0;entryDy=0;" edge="1" parent="1" target="lWKQJTrCnq6i_7RbVUrm-4">
          <mxGeometry width="50" height="50" relative="1" as="geometry">
            <mxPoint x="870" y="220" as="sourcePoint" />
            <mxPoint x="640" y="400" as="targetPoint" />
          </mxGeometry>
        </mxCell>
        <mxCell id="lWKQJTrCnq6i_7RbVUrm-23" value="" style="endArrow=none;html=1;rounded=0;" edge="1" parent="1">
          <mxGeometry width="50" height="50" relative="1" as="geometry">
            <mxPoint x="870" y="220" as="sourcePoint" />
            <mxPoint x="280" y="220" as="targetPoint" />
          </mxGeometry>
        </mxCell>
        <mxCell id="lWKQJTrCnq6i_7RbVUrm-24" value="" style="endArrow=none;html=1;rounded=0;entryX=0;entryY=1;entryDx=0;entryDy=0;" edge="1" parent="1" target="lWKQJTrCnq6i_7RbVUrm-2">
          <mxGeometry width="50" height="50" relative="1" as="geometry">
            <mxPoint x="220" y="400" as="sourcePoint" />
            <mxPoint x="620" y="450" as="targetPoint" />
          </mxGeometry>
        </mxCell>
        <mxCell id="lWKQJTrCnq6i_7RbVUrm-25" value="" style="endArrow=none;html=1;rounded=0;entryX=0;entryY=0.5;entryDx=0;entryDy=0;" edge="1" parent="1" target="lWKQJTrCnq6i_7RbVUrm-5">
          <mxGeometry width="50" height="50" relative="1" as="geometry">
            <mxPoint x="220" y="400" as="sourcePoint" />
            <mxPoint x="620" y="450" as="targetPoint" />
          </mxGeometry>
        </mxCell>
        <mxCell id="lWKQJTrCnq6i_7RbVUrm-28" value="" style="endArrow=none;html=1;rounded=0;entryX=0;entryY=0.5;entryDx=0;entryDy=0;" edge="1" parent="1">
          <mxGeometry width="50" height="50" relative="1" as="geometry">
            <mxPoint x="250" y="490.63" as="sourcePoint" />
            <mxPoint x="280" y="490.6299999999999" as="targetPoint" />
          </mxGeometry>
        </mxCell>
        <mxCell id="lWKQJTrCnq6i_7RbVUrm-29" value="" style="endArrow=none;html=1;rounded=0;entryX=0;entryY=1;entryDx=0;entryDy=0;exitX=0;exitY=0;exitDx=0;exitDy=0;" edge="1" parent="1" source="lWKQJTrCnq6i_7RbVUrm-8">
          <mxGeometry width="50" height="50" relative="1" as="geometry">
            <mxPoint x="250" y="490" as="sourcePoint" />
            <mxPoint x="250" y="430" as="targetPoint" />
          </mxGeometry>
        </mxCell>
        <mxCell id="lWKQJTrCnq6i_7RbVUrm-30" value="" style="endArrow=none;html=1;rounded=0;entryX=0;entryY=1;entryDx=0;entryDy=0;" edge="1" parent="1">
          <mxGeometry width="50" height="50" relative="1" as="geometry">
            <mxPoint x="525" y="400" as="sourcePoint" />
            <mxPoint x="525" y="320" as="targetPoint" />
          </mxGeometry>
        </mxCell>
        <mxCell id="lWKQJTrCnq6i_7RbVUrm-32" value="" style="endArrow=none;html=1;rounded=0;entryX=0;entryY=0.5;entryDx=0;entryDy=0;" edge="1" parent="1">
          <mxGeometry width="50" height="50" relative="1" as="geometry">
            <mxPoint x="525" y="399.57" as="sourcePoint" />
            <mxPoint x="555" y="399.57" as="targetPoint" />
          </mxGeometry>
        </mxCell>
        <mxCell id="lWKQJTrCnq6i_7RbVUrm-33" value="" style="endArrow=none;html=1;rounded=0;entryX=0;entryY=0.5;entryDx=0;entryDy=0;" edge="1" parent="1">
          <mxGeometry width="50" height="50" relative="1" as="geometry">
            <mxPoint x="250" y="550.4100000000001" as="sourcePoint" />
            <mxPoint x="280" y="550.4099999999999" as="targetPoint" />
          </mxGeometry>
        </mxCell>
        <mxCell id="lWKQJTrCnq6i_7RbVUrm-34" value="" style="endArrow=none;html=1;rounded=0;entryX=0;entryY=0.5;entryDx=0;entryDy=0;" edge="1" parent="1">
          <mxGeometry width="50" height="50" relative="1" as="geometry">
            <mxPoint x="250" y="734.6800000000001" as="sourcePoint" />
            <mxPoint x="280" y="734.6799999999998" as="targetPoint" />
          </mxGeometry>
        </mxCell>
        <mxCell id="lWKQJTrCnq6i_7RbVUrm-35" value="" style="endArrow=none;html=1;rounded=0;entryX=0;entryY=0.5;entryDx=0;entryDy=0;" edge="1" parent="1">
          <mxGeometry width="50" height="50" relative="1" as="geometry">
            <mxPoint x="250" y="794.6800000000001" as="sourcePoint" />
            <mxPoint x="280" y="794.6799999999998" as="targetPoint" />
          </mxGeometry>
        </mxCell>
        <mxCell id="lWKQJTrCnq6i_7RbVUrm-36" value="" style="endArrow=none;html=1;rounded=0;entryX=0;entryY=1;entryDx=0;entryDy=0;" edge="1" parent="1">
          <mxGeometry width="50" height="50" relative="1" as="geometry">
            <mxPoint x="250" y="795" as="sourcePoint" />
            <mxPoint x="250" y="665" as="targetPoint" />
          </mxGeometry>
        </mxCell>
        <mxCell id="lWKQJTrCnq6i_7RbVUrm-37" value="" style="endArrow=none;html=1;rounded=0;entryX=0;entryY=1;entryDx=0;entryDy=0;exitX=0;exitY=0;exitDx=0;exitDy=0;" edge="1" parent="1">
          <mxGeometry width="50" height="50" relative="1" as="geometry">
            <mxPoint x="555" y="610" as="sourcePoint" />
            <mxPoint x="555" y="430" as="targetPoint" />
          </mxGeometry>
        </mxCell>
        <mxCell id="lWKQJTrCnq6i_7RbVUrm-38" value="" style="endArrow=none;html=1;rounded=0;entryX=0;entryY=0.5;entryDx=0;entryDy=0;" edge="1" parent="1">
          <mxGeometry width="50" height="50" relative="1" as="geometry">
            <mxPoint x="555" y="491.67" as="sourcePoint" />
            <mxPoint x="585" y="491.6699999999998" as="targetPoint" />
          </mxGeometry>
        </mxCell>
        <mxCell id="lWKQJTrCnq6i_7RbVUrm-39" value="" style="endArrow=none;html=1;rounded=0;entryX=0;entryY=0.5;entryDx=0;entryDy=0;" edge="1" parent="1">
          <mxGeometry width="50" height="50" relative="1" as="geometry">
            <mxPoint x="555" y="551.6000000000001" as="sourcePoint" />
            <mxPoint x="585" y="551.5999999999999" as="targetPoint" />
          </mxGeometry>
        </mxCell>
        <mxCell id="lWKQJTrCnq6i_7RbVUrm-41" value="" style="endArrow=none;html=1;rounded=0;entryX=0;entryY=0.5;entryDx=0;entryDy=0;" edge="1" parent="1">
          <mxGeometry width="50" height="50" relative="1" as="geometry">
            <mxPoint x="555" y="735.6800000000001" as="sourcePoint" />
            <mxPoint x="585" y="735.68" as="targetPoint" />
          </mxGeometry>
        </mxCell>
        <mxCell id="lWKQJTrCnq6i_7RbVUrm-42" value="" style="endArrow=none;html=1;rounded=0;entryX=0;entryY=0.5;entryDx=0;entryDy=0;" edge="1" parent="1">
          <mxGeometry width="50" height="50" relative="1" as="geometry">
            <mxPoint x="555" y="795.58" as="sourcePoint" />
            <mxPoint x="585" y="795.5799999999998" as="targetPoint" />
          </mxGeometry>
        </mxCell>
        <mxCell id="lWKQJTrCnq6i_7RbVUrm-43" value="" style="endArrow=none;html=1;rounded=0;entryX=0;entryY=0.5;entryDx=0;entryDy=0;" edge="1" parent="1">
          <mxGeometry width="50" height="50" relative="1" as="geometry">
            <mxPoint x="555" y="855.6300000000001" as="sourcePoint" />
            <mxPoint x="585" y="855.6299999999999" as="targetPoint" />
          </mxGeometry>
        </mxCell>
        <mxCell id="lWKQJTrCnq6i_7RbVUrm-44" value="" style="endArrow=none;html=1;rounded=0;entryX=0;entryY=0.5;entryDx=0;entryDy=0;" edge="1" parent="1">
          <mxGeometry width="50" height="50" relative="1" as="geometry">
            <mxPoint x="555" y="915.69" as="sourcePoint" />
            <mxPoint x="585" y="915.6899999999998" as="targetPoint" />
          </mxGeometry>
        </mxCell>
        <mxCell id="lWKQJTrCnq6i_7RbVUrm-45" value="" style="endArrow=none;html=1;rounded=0;entryX=0;entryY=1;entryDx=0;entryDy=0;" edge="1" parent="1">
          <mxGeometry width="50" height="50" relative="1" as="geometry">
            <mxPoint x="555" y="916" as="sourcePoint" />
            <mxPoint x="555" y="666" as="targetPoint" />
          </mxGeometry>
        </mxCell>
      </root>
    </mxGraphModel>
  </diagram>
</mxfile>
